<?xml version="1.0" encoding="utf-8"?><svg width="auto" height="4320" style="overflow:visible " version="1.1" xmlns="http://www.w3.org/2000/svg"><rect x="20" y="20" width="200" height="40" style="fill:white;stroke:black;stroke-width:1" /><text x="30" y="30" font-size="10" style="fill:blue">xs:schema</text><text x="30" y="40" font-size="8" style="fill:black">xmlns: http://tempuri.org/rutas</text><text x="30" y="50" font-size="8" style="fill:black">elementFormDefault: qualified</text><text x="30" y="60" font-size="8" style="fill:black">targetNamespace: http://tempuri.org/rutas</text><text x="30" y="70" font-size="8" style="fill:black">xmlns:xs: http://www.w3.org/2001/XMLSchema</text><rect x="240" y="20" width="200" height="40" style="fill:white;stroke:black;stroke-width:1" /><text x="250" y="30" font-size="10" style="fill:blue">xs:element</text><path d="M220 40 C240 40 220 40 240 40" style="fill:transparent;stroke:black" /><text x="250" y="40" font-size="8" style="fill:black">name: rutas</text><rect x="460" y="20" width="200" height="40" style="fill:white;stroke:black;stroke-width:1" /><text x="470" y="30" font-size="10" style="fill:blue">xs:complexType</text><path d="M440 40 C460 40 440 40 460 40" style="fill:transparent;stroke:black" /><rect x="680" y="20" width="200" height="40" style="fill:white;stroke:black;stroke-width:1" /><text x="690" y="30" font-size="10" style="fill:blue">xs:sequence</text><path d="M660 40 C680 40 660 40 680 40" style="fill:transparent;stroke:black" /><rect x="900" y="20" width="200" height="40" style="fill:white;stroke:black;stroke-width:1" /><text x="910" y="30" font-size="10" style="fill:blue">xs:element</text><path d="M880 40 C900 40 880 40 900 40" style="fill:transparent;stroke:black" /><text x="910" y="40" font-size="8" style="fill:black">minOccurs: 1</text><text x="910" y="50" font-size="8" style="fill:black">maxOccurs: unbounded</text><text x="910" y="60" font-size="8" style="fill:black">ref: ruta</text><rect x="240" y="220" width="200" height="40" style="fill:white;stroke:black;stroke-width:1" /><text x="250" y="230" font-size="10" style="fill:blue">xs:element</text><path d="M220 40 C240 40 220 240 240 240" style="fill:transparent;stroke:black" /><text x="250" y="240" font-size="8" style="fill:black">name: ruta</text><rect x="460" y="220" width="200" height="40" style="fill:white;stroke:black;stroke-width:1" /><text x="470" y="230" font-size="10" style="fill:blue">xs:complexType</text><path d="M440 240 C460 240 440 240 460 240" style="fill:transparent;stroke:black" /><rect x="680" y="220" width="200" height="40" style="fill:white;stroke:black;stroke-width:1" /><text x="690" y="230" font-size="10" style="fill:blue">xs:sequence</text><path d="M660 240 C680 240 660 240 680 240" style="fill:transparent;stroke:black" /><rect x="900" y="220" width="200" height="40" style="fill:white;stroke:black;stroke-width:1" /><text x="910" y="230" font-size="10" style="fill:blue">xs:element</text><path d="M880 240 C900 240 880 240 900 240" style="fill:transparent;stroke:black" /><text x="910" y="240" font-size="8" style="fill:black">ref: tipo</text><rect x="900" y="270" width="200" height="40" style="fill:white;stroke:black;stroke-width:1" /><text x="910" y="280" font-size="10" style="fill:blue">xs:element</text><path d="M880 240 C900 240 880 290 900 290" style="fill:transparent;stroke:black" /><text x="910" y="290" font-size="8" style="fill:black">ref: dificultad-ruta</text><rect x="900" y="320" width="200" height="40" style="fill:white;stroke:black;stroke-width:1" /><text x="910" y="330" font-size="10" style="fill:blue">xs:element</text><path d="M880 240 C900 240 880 340 900 340" style="fill:transparent;stroke:black" /><text x="910" y="340" font-size="8" style="fill:black">ref: inicio</text><rect x="900" y="370" width="200" height="40" style="fill:white;stroke:black;stroke-width:1" /><text x="910" y="380" font-size="10" style="fill:blue">xs:element</text><path d="M880 240 C900 240 880 390 900 390" style="fill:transparent;stroke:black" /><text x="910" y="390" font-size="8" style="fill:black">ref: agencia</text><rect x="900" y="420" width="200" height="40" style="fill:white;stroke:black;stroke-width:1" /><text x="910" y="430" font-size="10" style="fill:blue">xs:element</text><path d="M880 240 C900 240 880 440 900 440" style="fill:transparent;stroke:black" /><text x="910" y="440" font-size="8" style="fill:black">ref: descripcion</text><rect x="900" y="470" width="200" height="40" style="fill:white;stroke:black;stroke-width:1" /><text x="910" y="480" font-size="10" style="fill:blue">xs:element</text><path d="M880 240 C900 240 880 490 900 490" style="fill:transparent;stroke:black" /><text x="910" y="490" font-size="8" style="fill:black">ref: personas-aptas</text><rect x="900" y="520" width="200" height="40" style="fill:white;stroke:black;stroke-width:1" /><text x="910" y="530" font-size="10" style="fill:blue">xs:element</text><path d="M880 240 C900 240 880 540 900 540" style="fill:transparent;stroke:black" /><text x="910" y="540" font-size="8" style="fill:black">ref: referencias</text><rect x="900" y="570" width="200" height="40" style="fill:white;stroke:black;stroke-width:1" /><text x="910" y="580" font-size="10" style="fill:blue">xs:element</text><path d="M880 240 C900 240 880 590 900 590" style="fill:transparent;stroke:black" /><text x="910" y="590" font-size="8" style="fill:black">ref: recomendacion</text><rect x="900" y="620" width="200" height="40" style="fill:white;stroke:black;stroke-width:1" /><text x="910" y="630" font-size="10" style="fill:blue">xs:element</text><path d="M880 240 C900 240 880 640 900 640" style="fill:transparent;stroke:black" /><text x="910" y="640" font-size="8" style="fill:black">ref: hitos</text><rect x="680" y="720" width="200" height="40" style="fill:white;stroke:black;stroke-width:1" /><text x="690" y="730" font-size="10" style="fill:blue">xs:attribute</text><path d="M660 240 C680 240 660 740 680 740" style="fill:transparent;stroke:black" /><text x="690" y="740" font-size="8" style="fill:black">name: nombre</text><text x="690" y="750" font-size="8" style="fill:black">type: xs:string</text><text x="690" y="760" font-size="8" style="fill:black">use: required</text><rect x="680" y="770" width="200" height="40" style="fill:white;stroke:black;stroke-width:1" /><text x="690" y="780" font-size="10" style="fill:blue">xs:attribute</text><path d="M660 240 C680 240 660 790 680 790" style="fill:transparent;stroke:black" /><text x="690" y="790" font-size="8" style="fill:black">name: duracion</text><text x="690" y="800" font-size="8" style="fill:black">type: xs:string</text><text x="690" y="810" font-size="8" style="fill:black">use: required</text><rect x="240" y="920" width="200" height="40" style="fill:white;stroke:black;stroke-width:1" /><text x="250" y="930" font-size="10" style="fill:blue">xs:element</text><path d="M220 40 C240 40 220 940 240 940" style="fill:transparent;stroke:black" /><text x="250" y="940" font-size="8" style="fill:black">name: tipo</text><text x="250" y="950" font-size="8" style="fill:black">type: xs:string</text><rect x="240" y="970" width="200" height="40" style="fill:white;stroke:black;stroke-width:1" /><text x="250" y="980" font-size="10" style="fill:blue">xs:element</text><path d="M220 40 C240 40 220 990 240 990" style="fill:transparent;stroke:black" /><text x="250" y="990" font-size="8" style="fill:black">name: dificultad-ruta</text><text x="250" y="1000" font-size="8" style="fill:black">type: xs:string</text><rect x="240" y="1020" width="200" height="40" style="fill:white;stroke:black;stroke-width:1" /><text x="250" y="1030" font-size="10" style="fill:blue">xs:element</text><path d="M220 40 C240 40 220 1040 240 1040" style="fill:transparent;stroke:black" /><text x="250" y="1040" font-size="8" style="fill:black">name: inicio</text><rect x="460" y="1020" width="200" height="40" style="fill:white;stroke:black;stroke-width:1" /><text x="470" y="1030" font-size="10" style="fill:blue">xs:complexType</text><path d="M440 1040 C460 1040 440 1040 460 1040" style="fill:transparent;stroke:black" /><rect x="680" y="1020" width="200" height="40" style="fill:white;stroke:black;stroke-width:1" /><text x="690" y="1030" font-size="10" style="fill:blue">xs:sequence</text><path d="M660 1040 C680 1040 660 1040 680 1040" style="fill:transparent;stroke:black" /><rect x="900" y="1020" width="200" height="40" style="fill:white;stroke:black;stroke-width:1" /><text x="910" y="1030" font-size="10" style="fill:blue">xs:element</text><path d="M880 1040 C900 1040 880 1040 900 1040" style="fill:transparent;stroke:black" /><text x="910" y="1040" font-size="8" style="fill:black">minOccurs: 0</text><text x="910" y="1050" font-size="8" style="fill:black">maxOccurs: 1</text><text x="910" y="1060" font-size="8" style="fill:black">ref: fecha-inicio</text><rect x="900" y="1070" width="200" height="40" style="fill:white;stroke:black;stroke-width:1" /><text x="910" y="1080" font-size="10" style="fill:blue">xs:element</text><path d="M880 1040 C900 1040 880 1090 900 1090" style="fill:transparent;stroke:black" /><text x="910" y="1090" font-size="8" style="fill:black">minOccurs: 0</text><text x="910" y="1100" font-size="8" style="fill:black">maxOccurs: 1</text><text x="910" y="1110" font-size="8" style="fill:black">ref: hora-inicio</text><rect x="900" y="1120" width="200" height="40" style="fill:white;stroke:black;stroke-width:1" /><text x="910" y="1130" font-size="10" style="fill:blue">xs:element</text><path d="M880 1040 C900 1040 880 1140 900 1140" style="fill:transparent;stroke:black" /><text x="910" y="1140" font-size="8" style="fill:black">ref: lugar-inicio</text><rect x="900" y="1170" width="200" height="40" style="fill:white;stroke:black;stroke-width:1" /><text x="910" y="1180" font-size="10" style="fill:blue">xs:element</text><path d="M880 1040 C900 1040 880 1190 900 1190" style="fill:transparent;stroke:black" /><text x="910" y="1190" font-size="8" style="fill:black">ref: direccion-inicio</text><rect x="680" y="1270" width="200" height="40" style="fill:white;stroke:black;stroke-width:1" /><text x="690" y="1280" font-size="10" style="fill:blue">xs:attribute</text><path d="M660 1040 C680 1040 660 1290 680 1290" style="fill:transparent;stroke:black" /><text x="690" y="1290" font-size="8" style="fill:black">name: longitud</text><text x="690" y="1300" font-size="8" style="fill:black">type: xs:double</text><text x="690" y="1310" font-size="8" style="fill:black">use: required</text><rect x="680" y="1320" width="200" height="40" style="fill:white;stroke:black;stroke-width:1" /><text x="690" y="1330" font-size="10" style="fill:blue">xs:attribute</text><path d="M660 1040 C680 1040 660 1340 680 1340" style="fill:transparent;stroke:black" /><text x="690" y="1340" font-size="8" style="fill:black">name: latitud</text><text x="690" y="1350" font-size="8" style="fill:black">type: xs:double</text><text x="690" y="1360" font-size="8" style="fill:black">use: required</text><rect x="680" y="1370" width="200" height="40" style="fill:white;stroke:black;stroke-width:1" /><text x="690" y="1380" font-size="10" style="fill:blue">xs:attribute</text><path d="M660 1040 C680 1040 660 1390 680 1390" style="fill:transparent;stroke:black" /><text x="690" y="1390" font-size="8" style="fill:black">name: altitud</text><text x="690" y="1400" font-size="8" style="fill:black">type: xs:double</text><text x="690" y="1410" font-size="8" style="fill:black">use: required</text><rect x="240" y="1520" width="200" height="40" style="fill:white;stroke:black;stroke-width:1" /><text x="250" y="1530" font-size="10" style="fill:blue">xs:element</text><path d="M220 40 C240 40 220 1540 240 1540" style="fill:transparent;stroke:black" /><text x="250" y="1540" font-size="8" style="fill:black">name: fecha-inicio</text><text x="250" y="1550" font-size="8" style="fill:black">type: xs:date</text><rect x="240" y="1570" width="200" height="40" style="fill:white;stroke:black;stroke-width:1" /><text x="250" y="1580" font-size="10" style="fill:blue">xs:element</text><path d="M220 40 C240 40 220 1590 240 1590" style="fill:transparent;stroke:black" /><text x="250" y="1590" font-size="8" style="fill:black">name: hora-inicio</text><text x="250" y="1600" font-size="8" style="fill:black">type: xs:time</text><rect x="240" y="1620" width="200" height="40" style="fill:white;stroke:black;stroke-width:1" /><text x="250" y="1630" font-size="10" style="fill:blue">xs:element</text><path d="M220 40 C240 40 220 1640 240 1640" style="fill:transparent;stroke:black" /><text x="250" y="1640" font-size="8" style="fill:black">name: lugar-inicio</text><text x="250" y="1650" font-size="8" style="fill:black">type: xs:string</text><rect x="240" y="1670" width="200" height="40" style="fill:white;stroke:black;stroke-width:1" /><text x="250" y="1680" font-size="10" style="fill:blue">xs:element</text><path d="M220 40 C240 40 220 1690 240 1690" style="fill:transparent;stroke:black" /><text x="250" y="1690" font-size="8" style="fill:black">name: direccion-inicio</text><text x="250" y="1700" font-size="8" style="fill:black">type: xs:string</text><rect x="240" y="1720" width="200" height="40" style="fill:white;stroke:black;stroke-width:1" /><text x="250" y="1730" font-size="10" style="fill:blue">xs:element</text><path d="M220 40 C240 40 220 1740 240 1740" style="fill:transparent;stroke:black" /><text x="250" y="1740" font-size="8" style="fill:black">name: agencia</text><text x="250" y="1750" font-size="8" style="fill:black">type: xs:string</text><rect x="240" y="1770" width="200" height="40" style="fill:white;stroke:black;stroke-width:1" /><text x="250" y="1780" font-size="10" style="fill:blue">xs:element</text><path d="M220 40 C240 40 220 1790 240 1790" style="fill:transparent;stroke:black" /><text x="250" y="1790" font-size="8" style="fill:black">name: descripcion</text><text x="250" y="1800" font-size="8" style="fill:black">type: xs:string</text><rect x="240" y="1820" width="200" height="40" style="fill:white;stroke:black;stroke-width:1" /><text x="250" y="1830" font-size="10" style="fill:blue">xs:element</text><path d="M220 40 C240 40 220 1840 240 1840" style="fill:transparent;stroke:black" /><text x="250" y="1840" font-size="8" style="fill:black">name: personas-aptas</text><rect x="460" y="1820" width="200" height="40" style="fill:white;stroke:black;stroke-width:1" /><text x="470" y="1830" font-size="10" style="fill:blue">xs:complexType</text><path d="M440 1840 C460 1840 440 1840 460 1840" style="fill:transparent;stroke:black" /><rect x="680" y="1820" width="200" height="40" style="fill:white;stroke:black;stroke-width:1" /><text x="690" y="1830" font-size="10" style="fill:blue">xs:sequence</text><path d="M660 1840 C680 1840 660 1840 680 1840" style="fill:transparent;stroke:black" /><rect x="900" y="1820" width="200" height="40" style="fill:white;stroke:black;stroke-width:1" /><text x="910" y="1830" font-size="10" style="fill:blue">xs:element</text><path d="M880 1840 C900 1840 880 1840 900 1840" style="fill:transparent;stroke:black" /><text x="910" y="1840" font-size="8" style="fill:black">minOccurs: 1</text><text x="910" y="1850" font-size="8" style="fill:black">maxOccurs: unbounded</text><text x="910" y="1860" font-size="8" style="fill:black">ref: apta</text><rect x="240" y="2020" width="200" height="40" style="fill:white;stroke:black;stroke-width:1" /><text x="250" y="2030" font-size="10" style="fill:blue">xs:element</text><path d="M220 40 C240 40 220 2040 240 2040" style="fill:transparent;stroke:black" /><text x="250" y="2040" font-size="8" style="fill:black">name: apta</text><text x="250" y="2050" font-size="8" style="fill:black">type: xs:string</text><rect x="240" y="2070" width="200" height="40" style="fill:white;stroke:black;stroke-width:1" /><text x="250" y="2080" font-size="10" style="fill:blue">xs:element</text><path d="M220 40 C240 40 220 2090 240 2090" style="fill:transparent;stroke:black" /><text x="250" y="2090" font-size="8" style="fill:black">name: referencias</text><rect x="460" y="2070" width="200" height="40" style="fill:white;stroke:black;stroke-width:1" /><text x="470" y="2080" font-size="10" style="fill:blue">xs:complexType</text><path d="M440 2090 C460 2090 440 2090 460 2090" style="fill:transparent;stroke:black" /><rect x="680" y="2070" width="200" height="40" style="fill:white;stroke:black;stroke-width:1" /><text x="690" y="2080" font-size="10" style="fill:blue">xs:sequence</text><path d="M660 2090 C680 2090 660 2090 680 2090" style="fill:transparent;stroke:black" /><rect x="900" y="2070" width="200" height="40" style="fill:white;stroke:black;stroke-width:1" /><text x="910" y="2080" font-size="10" style="fill:blue">xs:element</text><path d="M880 2090 C900 2090 880 2090 900 2090" style="fill:transparent;stroke:black" /><text x="910" y="2090" font-size="8" style="fill:black">minOccurs: 1</text><text x="910" y="2100" font-size="8" style="fill:black">maxOccurs: unbounded</text><text x="910" y="2110" font-size="8" style="fill:black">ref: referencia</text><rect x="240" y="2270" width="200" height="40" style="fill:white;stroke:black;stroke-width:1" /><text x="250" y="2280" font-size="10" style="fill:blue">xs:element</text><path d="M220 40 C240 40 220 2290 240 2290" style="fill:transparent;stroke:black" /><text x="250" y="2290" font-size="8" style="fill:black">name: referencia</text><text x="250" y="2300" font-size="8" style="fill:black">type: xs:string</text><rect x="240" y="2320" width="200" height="40" style="fill:white;stroke:black;stroke-width:1" /><text x="250" y="2330" font-size="10" style="fill:blue">xs:element</text><path d="M220 40 C240 40 220 2340 240 2340" style="fill:transparent;stroke:black" /><text x="250" y="2340" font-size="8" style="fill:black">name: recomendacion</text><text x="250" y="2350" font-size="8" style="fill:black">type: xs:int</text><rect x="240" y="2370" width="200" height="40" style="fill:white;stroke:black;stroke-width:1" /><text x="250" y="2380" font-size="10" style="fill:blue">xs:element</text><path d="M220 40 C240 40 220 2390 240 2390" style="fill:transparent;stroke:black" /><text x="250" y="2390" font-size="8" style="fill:black">name: hitos</text><rect x="460" y="2370" width="200" height="40" style="fill:white;stroke:black;stroke-width:1" /><text x="470" y="2380" font-size="10" style="fill:blue">xs:complexType</text><path d="M440 2390 C460 2390 440 2390 460 2390" style="fill:transparent;stroke:black" /><rect x="680" y="2370" width="200" height="40" style="fill:white;stroke:black;stroke-width:1" /><text x="690" y="2380" font-size="10" style="fill:blue">xs:sequence</text><path d="M660 2390 C680 2390 660 2390 680 2390" style="fill:transparent;stroke:black" /><rect x="900" y="2370" width="200" height="40" style="fill:white;stroke:black;stroke-width:1" /><text x="910" y="2380" font-size="10" style="fill:blue">xs:element</text><path d="M880 2390 C900 2390 880 2390 900 2390" style="fill:transparent;stroke:black" /><text x="910" y="2390" font-size="8" style="fill:black">minOccurs: 3</text><text x="910" y="2400" font-size="8" style="fill:black">maxOccurs: unbounded</text><text x="910" y="2410" font-size="8" style="fill:black">ref: hito</text><rect x="240" y="2570" width="200" height="40" style="fill:white;stroke:black;stroke-width:1" /><text x="250" y="2580" font-size="10" style="fill:blue">xs:element</text><path d="M220 40 C240 40 220 2590 240 2590" style="fill:transparent;stroke:black" /><text x="250" y="2590" font-size="8" style="fill:black">name: hito</text><rect x="460" y="2570" width="200" height="40" style="fill:white;stroke:black;stroke-width:1" /><text x="470" y="2580" font-size="10" style="fill:blue">xs:complexType</text><path d="M440 2590 C460 2590 440 2590 460 2590" style="fill:transparent;stroke:black" /><rect x="680" y="2570" width="200" height="40" style="fill:white;stroke:black;stroke-width:1" /><text x="690" y="2580" font-size="10" style="fill:blue">xs:sequence</text><path d="M660 2590 C680 2590 660 2590 680 2590" style="fill:transparent;stroke:black" /><rect x="900" y="2570" width="200" height="40" style="fill:white;stroke:black;stroke-width:1" /><text x="910" y="2580" font-size="10" style="fill:blue">xs:element</text><path d="M880 2590 C900 2590 880 2590 900 2590" style="fill:transparent;stroke:black" /><text x="910" y="2590" font-size="8" style="fill:black">ref: nombre-hito</text><rect x="900" y="2620" width="200" height="40" style="fill:white;stroke:black;stroke-width:1" /><text x="910" y="2630" font-size="10" style="fill:blue">xs:element</text><path d="M880 2590 C900 2590 880 2640 900 2640" style="fill:transparent;stroke:black" /><text x="910" y="2640" font-size="8" style="fill:black">ref: descripcion-hito</text><rect x="900" y="2670" width="200" height="40" style="fill:white;stroke:black;stroke-width:1" /><text x="910" y="2680" font-size="10" style="fill:blue">xs:element</text><path d="M880 2590 C900 2590 880 2690 900 2690" style="fill:transparent;stroke:black" /><text x="910" y="2690" font-size="8" style="fill:black">ref: distancia-hito</text><rect x="900" y="2720" width="200" height="40" style="fill:white;stroke:black;stroke-width:1" /><text x="910" y="2730" font-size="10" style="fill:blue">xs:element</text><path d="M880 2590 C900 2590 880 2740 900 2740" style="fill:transparent;stroke:black" /><text x="910" y="2740" font-size="8" style="fill:black">minOccurs: 0</text><text x="910" y="2750" font-size="8" style="fill:black">maxOccurs: 1</text><text x="910" y="2760" font-size="8" style="fill:black">ref: tiempo-hito</text><rect x="900" y="2770" width="200" height="40" style="fill:white;stroke:black;stroke-width:1" /><text x="910" y="2780" font-size="10" style="fill:blue">xs:element</text><path d="M880 2590 C900 2590 880 2790 900 2790" style="fill:transparent;stroke:black" /><text x="910" y="2790" font-size="8" style="fill:black">minOccurs: 1</text><text x="910" y="2800" font-size="8" style="fill:black">maxOccurs: unbounded</text><text x="910" y="2810" font-size="8" style="fill:black">ref: fotos-hito</text><rect x="900" y="2820" width="200" height="40" style="fill:white;stroke:black;stroke-width:1" /><text x="910" y="2830" font-size="10" style="fill:blue">xs:element</text><path d="M880 2590 C900 2590 880 2840 900 2840" style="fill:transparent;stroke:black" /><text x="910" y="2840" font-size="8" style="fill:black">minOccurs: 0</text><text x="910" y="2850" font-size="8" style="fill:black">maxOccurs: unbounded</text><text x="910" y="2860" font-size="8" style="fill:black">ref: videos-hito</text><rect x="680" y="2920" width="200" height="40" style="fill:white;stroke:black;stroke-width:1" /><text x="690" y="2930" font-size="10" style="fill:blue">xs:attribute</text><path d="M660 2590 C680 2590 660 2940 680 2940" style="fill:transparent;stroke:black" /><text x="690" y="2940" font-size="8" style="fill:black">name: longitud</text><text x="690" y="2950" font-size="8" style="fill:black">type: xs:string</text><text x="690" y="2960" font-size="8" style="fill:black">use: required</text><rect x="680" y="2970" width="200" height="40" style="fill:white;stroke:black;stroke-width:1" /><text x="690" y="2980" font-size="10" style="fill:blue">xs:attribute</text><path d="M660 2590 C680 2590 660 2990 680 2990" style="fill:transparent;stroke:black" /><text x="690" y="2990" font-size="8" style="fill:black">name: latitud</text><text x="690" y="3000" font-size="8" style="fill:black">type: xs:string</text><text x="690" y="3010" font-size="8" style="fill:black">use: required</text><rect x="680" y="3020" width="200" height="40" style="fill:white;stroke:black;stroke-width:1" /><text x="690" y="3030" font-size="10" style="fill:blue">xs:attribute</text><path d="M660 2590 C680 2590 660 3040 680 3040" style="fill:transparent;stroke:black" /><text x="690" y="3040" font-size="8" style="fill:black">name: altitud</text><text x="690" y="3050" font-size="8" style="fill:black">type: xs:string</text><text x="690" y="3060" font-size="8" style="fill:black">use: required</text><rect x="240" y="3170" width="200" height="40" style="fill:white;stroke:black;stroke-width:1" /><text x="250" y="3180" font-size="10" style="fill:blue">xs:element</text><path d="M220 40 C240 40 220 3190 240 3190" style="fill:transparent;stroke:black" /><text x="250" y="3190" font-size="8" style="fill:black">name: nombre-hito</text><text x="250" y="3200" font-size="8" style="fill:black">type: xs:string</text><rect x="240" y="3220" width="200" height="40" style="fill:white;stroke:black;stroke-width:1" /><text x="250" y="3230" font-size="10" style="fill:blue">xs:element</text><path d="M220 40 C240 40 220 3240 240 3240" style="fill:transparent;stroke:black" /><text x="250" y="3240" font-size="8" style="fill:black">name: descripcion-hito</text><text x="250" y="3250" font-size="8" style="fill:black">type: xs:string</text><rect x="240" y="3270" width="200" height="40" style="fill:white;stroke:black;stroke-width:1" /><text x="250" y="3280" font-size="10" style="fill:blue">xs:element</text><path d="M220 40 C240 40 220 3290 240 3290" style="fill:transparent;stroke:black" /><text x="250" y="3290" font-size="8" style="fill:black">name: distancia-hito</text><rect x="460" y="3270" width="200" height="40" style="fill:white;stroke:black;stroke-width:1" /><text x="470" y="3280" font-size="10" style="fill:blue">xs:complexType</text><path d="M440 3290 C460 3290 440 3290 460 3290" style="fill:transparent;stroke:black" /><rect x="680" y="3270" width="200" height="40" style="fill:white;stroke:black;stroke-width:1" /><text x="690" y="3280" font-size="10" style="fill:blue">xs:simpleContent</text><path d="M660 3290 C680 3290 660 3290 680 3290" style="fill:transparent;stroke:black" /><rect x="900" y="3270" width="200" height="40" style="fill:white;stroke:black;stroke-width:1" /><text x="910" y="3280" font-size="10" style="fill:blue">xs:extension</text><path d="M880 3290 C900 3290 880 3290 900 3290" style="fill:transparent;stroke:black" /><text x="910" y="3290" font-size="8" style="fill:black">base: xs:string</text><rect x="1120" y="3270" width="200" height="40" style="fill:white;stroke:black;stroke-width:1" /><text x="1130" y="3280" font-size="10" style="fill:blue">xs:attribute</text><path d="M1100 3290 C1120 3290 1100 3290 1120 3290" style="fill:transparent;stroke:black" /><text x="1130" y="3290" font-size="8" style="fill:black">name: unidad</text><text x="1130" y="3300" font-size="8" style="fill:black">type: xs:string</text><text x="1130" y="3310" font-size="8" style="fill:black">use: required</text><rect x="240" y="3520" width="200" height="40" style="fill:white;stroke:black;stroke-width:1" /><text x="250" y="3530" font-size="10" style="fill:blue">xs:element</text><path d="M220 40 C240 40 220 3540 240 3540" style="fill:transparent;stroke:black" /><text x="250" y="3540" font-size="8" style="fill:black">name: tiempo-hito</text><rect x="460" y="3520" width="200" height="40" style="fill:white;stroke:black;stroke-width:1" /><text x="470" y="3530" font-size="10" style="fill:blue">xs:complexType</text><path d="M440 3540 C460 3540 440 3540 460 3540" style="fill:transparent;stroke:black" /><rect x="680" y="3520" width="200" height="40" style="fill:white;stroke:black;stroke-width:1" /><text x="690" y="3530" font-size="10" style="fill:blue">xs:simpleContent</text><path d="M660 3540 C680 3540 660 3540 680 3540" style="fill:transparent;stroke:black" /><rect x="900" y="3520" width="200" height="40" style="fill:white;stroke:black;stroke-width:1" /><text x="910" y="3530" font-size="10" style="fill:blue">xs:extension</text><path d="M880 3540 C900 3540 880 3540 900 3540" style="fill:transparent;stroke:black" /><text x="910" y="3540" font-size="8" style="fill:black">base: xs:string</text><rect x="1120" y="3520" width="200" height="40" style="fill:white;stroke:black;stroke-width:1" /><text x="1130" y="3530" font-size="10" style="fill:blue">xs:attribute</text><path d="M1100 3540 C1120 3540 1100 3540 1120 3540" style="fill:transparent;stroke:black" /><text x="1130" y="3540" font-size="8" style="fill:black">name: unidad</text><text x="1130" y="3550" font-size="8" style="fill:black">type: xs:string</text><text x="1130" y="3560" font-size="8" style="fill:black">use: required</text><rect x="240" y="3770" width="200" height="40" style="fill:white;stroke:black;stroke-width:1" /><text x="250" y="3780" font-size="10" style="fill:blue">xs:element</text><path d="M220 40 C240 40 220 3790 240 3790" style="fill:transparent;stroke:black" /><text x="250" y="3790" font-size="8" style="fill:black">name: fotos-hito</text><rect x="460" y="3770" width="200" height="40" style="fill:white;stroke:black;stroke-width:1" /><text x="470" y="3780" font-size="10" style="fill:blue">xs:complexType</text><path d="M440 3790 C460 3790 440 3790 460 3790" style="fill:transparent;stroke:black" /><rect x="680" y="3770" width="200" height="40" style="fill:white;stroke:black;stroke-width:1" /><text x="690" y="3780" font-size="10" style="fill:blue">xs:sequence</text><path d="M660 3790 C680 3790 660 3790 680 3790" style="fill:transparent;stroke:black" /><rect x="900" y="3770" width="200" height="40" style="fill:white;stroke:black;stroke-width:1" /><text x="910" y="3780" font-size="10" style="fill:blue">xs:element</text><path d="M880 3790 C900 3790 880 3790 900 3790" style="fill:transparent;stroke:black" /><text x="910" y="3790" font-size="8" style="fill:black">minOccurs: 1</text><text x="910" y="3800" font-size="8" style="fill:black">maxOccurs: 5</text><text x="910" y="3810" font-size="8" style="fill:black">ref: foto-hito</text><rect x="240" y="3970" width="200" height="40" style="fill:white;stroke:black;stroke-width:1" /><text x="250" y="3980" font-size="10" style="fill:blue">xs:element</text><path d="M220 40 C240 40 220 3990 240 3990" style="fill:transparent;stroke:black" /><text x="250" y="3990" font-size="8" style="fill:black">name: foto-hito</text><text x="250" y="4000" font-size="8" style="fill:black">type: xs:string</text><rect x="240" y="4020" width="200" height="40" style="fill:white;stroke:black;stroke-width:1" /><text x="250" y="4030" font-size="10" style="fill:blue">xs:element</text><path d="M220 40 C240 40 220 4040 240 4040" style="fill:transparent;stroke:black" /><text x="250" y="4040" font-size="8" style="fill:black">name: videos-hito</text><rect x="460" y="4020" width="200" height="40" style="fill:white;stroke:black;stroke-width:1" /><text x="470" y="4030" font-size="10" style="fill:blue">xs:complexType</text><path d="M440 4040 C460 4040 440 4040 460 4040" style="fill:transparent;stroke:black" /><rect x="680" y="4020" width="200" height="40" style="fill:white;stroke:black;stroke-width:1" /><text x="690" y="4030" font-size="10" style="fill:blue">xs:sequence</text><path d="M660 4040 C680 4040 660 4040 680 4040" style="fill:transparent;stroke:black" /><rect x="900" y="4020" width="200" height="40" style="fill:white;stroke:black;stroke-width:1" /><text x="910" y="4030" font-size="10" style="fill:blue">xs:element</text><path d="M880 4040 C900 4040 880 4040 900 4040" style="fill:transparent;stroke:black" /><text x="910" y="4040" font-size="8" style="fill:black">minOccurs: 0</text><text x="910" y="4050" font-size="8" style="fill:black">maxOccurs: 3</text><text x="910" y="4060" font-size="8" style="fill:black">ref: video-hito</text><rect x="240" y="4220" width="200" height="40" style="fill:white;stroke:black;stroke-width:1" /><text x="250" y="4230" font-size="10" style="fill:blue">xs:element</text><path d="M220 40 C240 40 220 4240 240 4240" style="fill:transparent;stroke:black" /><text x="250" y="4240" font-size="8" style="fill:black">name: video-hito</text><text x="250" y="4250" font-size="8" style="fill:black">type: xs:string</text></svg>